HIERARCHY
ROOT Root
{
  OFFSET 8.89354 12.5188 -31.3825
  CHANNELS 6 Xposition Yposition Zposition Zrotation Xrotation Yrotation
  JOINT Spine
  {
    OFFSET 5.3114 0 0
    CHANNELS 3 Zrotation Xrotation Yrotation
    JOINT Spine1
    {
      OFFSET 2.79004 0 0
      CHANNELS 3 Zrotation Xrotation Yrotation
      JOINT Neck
      {
        OFFSET 1.43377 0 0
        CHANNELS 3 Zrotation Xrotation Yrotation
        JOINT Head
        {
          OFFSET 1.86043 0 0
          CHANNELS 3 Zrotation Xrotation Yrotation
          End Site
          {
            OFFSET 0 0 0
          }
        }
      }
      JOINT LeftArm
      {
        OFFSET 0.0387506 0 2.55754
        CHANNELS 3 Zrotation Xrotation Yrotation
        JOINT LeftForeArm
        {
          OFFSET 4.24845 0 0
          CHANNELS 3 Zrotation Xrotation Yrotation
          JOINT LeftHand
          {
            OFFSET 4.01008 0 0
            CHANNELS 3 Zrotation Xrotation Yrotation
            End Site
            {
              OFFSET 0 0 0
            }
          }
        }
      }
      JOINT RightArm
      {
        OFFSET 0.0387506 0 -2.55754
        CHANNELS 3 Zrotation Xrotation Yrotation
        JOINT RightForeArm
        {
          OFFSET -4.24845 0 0
          CHANNELS 3 Zrotation Xrotation Yrotation
          JOINT RightHand
          {
            OFFSET -4.01009 0 0
            CHANNELS 3 Zrotation Xrotation Yrotation
            End Site
            {
              OFFSET 0 0 0
            }
          }
        }
      }
    }
  }
  JOINT LeftUpLeg
  {
    OFFSET -1.23318 0 2.05692
    CHANNELS 3 Zrotation Xrotation Yrotation
    JOINT LeftLeg
    {
      OFFSET 5.46397 0 0
      CHANNELS 3 Zrotation Xrotation Yrotation
      JOINT LeftFoot
      {
        OFFSET 4.68898 0 0
        CHANNELS 3 Zrotation Xrotation Yrotation
        End Site
        {
          OFFSET 0 0 0
        }
      }
    }
  }
  JOINT RightUpLeg
  {
    OFFSET -1.24454 0 -2.05007
    CHANNELS 3 Zrotation Xrotation Yrotation
    JOINT RightLeg
    {
      OFFSET -5.46397 0 0
      CHANNELS 3 Zrotation Xrotation Yrotation
      JOINT RightFoot
      {
        OFFSET -4.68901 0 0
        CHANNELS 3 Zrotation Xrotation Yrotation
        End Site
        {
          OFFSET 0 0 0
        }
      }
    }
  }
}
MOTION
Frames:	17
Frame Time:	0.0416667
6.6332 12.2497 31.2334 -98.1827 -71.6005 176.147 -0.217851 -14.0083 8.25632 -2.20512 -3.8899 4.27449 -4.23915 8.37468 10.2844 17.365 15.7351 -17.0908 5.5758 -24.5624 -162.622 35.5234 3.31734 20.3407 1.31553 14.6857 174.279 -145.665 -11.3561 -155.464 36.757 3.66608 21.0016 1.6472 18.179 174.188 16.8816 -3.31259 164.662 -11.4989 -0.922238 -0.87584 2.14744 -10.7667 179.072 150.785 -14.296 172.324 -40.9579 -1.16898 -1.51964 22.3553 -16.2396 -177.211 
6.70743 12.2986 30.8567 -99.1929 -72.2677 175.766 -1.05553 -14.772 8.65031 -1.98425 -4.04915 5.33233 -5.84612 7.76101 11.1776 19.7122 14.296 -19.6636 8.86656 -29.0129 -163.156 38.4417 4.16393 21.8975 0.884223 10.0009 174.376 -146.411 -11.3174 -155.201 36.4457 3.57592 20.8357 1.76149 19.3418 174.15 15.3136 -1.4889 164.72 -16.4076 -0.919054 -0.849268 -2.57832 -8.82159 177.822 152.402 -15.5076 172.666 -41.458 -1.17612 -1.52992 22.4962 -17.4142 -176.888 
6.79129 12.3118 30.4903 -98.1125 -72.8134 177.085 -1.20893 -14.629 8.77081 -2.31626 -3.99976 6.06703 -5.3821 7.56533 11.092 19.4497 13.8619 -19.5755 12.4134 -31.5666 -164.705 41.831 5.24553 23.6698 0.876735 9.9202 174.379 -146.709 -12.1459 -155.461 34.9762 3.17157 20.043 1.72719 19.004 174.164 13.2022 2.34075 165.805 -24.7629 -0.94984 -1.04005 -6.61661 -5.73038 177.203 154.42 -16.061 172.563 -42.3899 -1.21594 -1.54882 23.365 -18.569 -176.297 
6.87435 12.2628 30.1403 -96.3162 -73.2832 178.445 -0.601002 -14.4416 9.87882 -2.42936 -3.91548 6.81638 -3.67559 8.06889 8.40521 16.8504 15.0234 -17.4871 15.6742 -34.6304 -166.451 46.2037 6.80884 25.8805 0.629614 7.16277 174.418 -147 -14.1012 -154.472 33.407 2.76346 19.1887 1.78448 19.5902 174.146 8.13823 7.81662 168.675 -39.3266 -1.02211 -1.48981 -9.0096 -2.50155 177.223 156.196 -14.8119 172.219 -44.1723 -1.33699 -1.5862 26.6501 -17.5797 -175.5 
6.95085 12.1433 29.8283 -95.2092 -74.3179 178.556 0.105158 -13.7435 11.1427 -2.88836 -3.69038 7.76939 -0.688116 8.17594 5.14191 12.0242 15.5388 -15.0105 16.4009 -38.9971 -168.293 47.8493 7.43279 26.7022 0.328004 3.74565 174.447 -148.435 -14.8391 -154.018 31.2537 2.24104 18.0057 1.90763 20.8314 174.104 -0.732283 11.6442 173.165 -59.0609 -1.05463 -2.16729 -6.52787 -2.35488 177.297 157.146 -11.9774 171.626 -46.8441 -1.48661 -1.65329 28.9504 -17.2898 -174.741 
7.01977 11.9772 29.5317 -89.6753 -75.5302 -178.106 2.92845 -10.557 13.314 -3.3182 -2.81766 7.17427 -1.74967 7.11732 4.38934 9.50659 13.787 -13.3274 19.0298 -41.7999 -168.6 52.5283 9.41745 28.8739 0.325462 3.71509 174.445 -152.347 -15.0371 -155.474 28.4857 1.63934 16.4653 2.08011 22.5326 174.04 -10.7443 11.4323 178.883 -79.3112 -0.864597 -2.92547 -0.706429 -2.41486 177.444 159.169 -8.81472 170.054 -49.4572 -1.64238 -1.7386 31.5525 -16.3944 -174.128 
7.0593 11.7434 29.2758 -77.8807 -78.0365 -169.905 7.11109 -7.71377 16.6992 -4.61213 -2.09134 6.50657 -2.81014 5.5584 5.40294 7.76354 10.891 -14.6254 20.2949 -43.6973 -169.69 54.6519 10.3409 29.8658 0.45513 5.18804 174.434 -158.212 -13.3221 -156.373 23.8169 0.806836 13.8246 2.94339 30.4098 173.655 -20.4677 6.0635 -175.622 -96.1899 -0.470507 -3.49932 5.93826 1.45933 177.606 162.687 -4.38864 167.493 -51.9348 -1.81427 -1.8298 35.4705 -15.7558 -173.055 
7.11195 11.4964 29.0174 -66.1036 -79.876 -160.475 9.25277 -5.00381 17.9632 -5.54283 -1.3734 6.46441 -2.30001 4.22036 5.17433 4.97057 8.43207 -13.1456 21.0569 -43.6896 -172.565 54.3798 10.2222 29.7373 0.689894 7.83677 174.408 -159.435 -16.8652 -154.81 22.8314 0.65855 13.2619 3.57466 35.4757 173.311 -29.886 -0.341766 -173.724 -104.497 -0.209761 -3.71998 11.5657 1.61262 177.519 165.276 -0.929229 165.753 -54.9177 -1.96624 -1.94023 38.8314 -15.3098 -172.184 
7.18299 11.3457 28.712 -51.4317 -81.3876 -146.599 10.2701 -3.47497 17.3445 -5.98923 -0.983154 7.15376 -1.6227 2.95161 3.73561 2.65695 6.04942 -11.8948 20.6515 -43.3066 -174.521 50.0105 8.31982 27.7266 0.873781 9.89034 174.38 -160.371 -20.8424 -152.11 23.3998 0.74213 13.5868 3.57174 35.4535 173.313 -36.8139 -5.8123 -175.252 -103.253 -0.402133 -3.6281 16.333 -3.93687 178.467 168.699 1.69355 165.423 -56.6225 -2.08938 -2.00834 42.1533 -14.4451 -171.643 
7.24876 11.3548 28.3293 -41.9326 -81.3682 -137.507 9.56166 -0.704364 16.9262 -4.77379 -0.0925769 5.91178 -1.35457 1.61907 2.68145 1.2428 3.46475 -10.5887 22.7003 -41.4705 -173.561 45.5129 6.55201 25.5352 1.13971 12.8093 174.327 -162.601 -23.6624 -150.973 24.8265 0.969873 14.3987 3.0804 31.5589 173.584 -39.706 -9.37443 -176.723 -93.354 -0.952317 -3.25263 21.0885 -10.1514 -179.27 173.194 2.41628 165.286 -55.1046 -2.11187 -1.96482 43.4606 -13.7692 -171.72 
7.33056 11.4508 27.9649 -44.4731 -81.2649 -139.479 8.14478 2.36969 15.1941 -4.08614 0.80591 5.05122 -1.33394 0.399352 1.77628 1.22389 1.03452 -10.182 24.5656 -36.8441 -172.414 41.3472 5.08387 23.4199 1.32952 14.8532 174.281 -164.162 -26.1077 -149.521 26.1225 1.19182 15.134 2.75177 28.7556 173.749 -39.8918 -11.6304 -177.467 -76.2352 -1.30728 -2.63159 20.7135 -12.7236 -178.347 176.239 1.44458 165.764 -51.9333 -2.05346 -1.8611 42.5822 -13.8747 -172.01 
7.35677 11.5969 27.5663 -31.9487 -82.581 -126.376 6.86437 3.82083 14.236 -3.64582 1.23112 3.72323 -1.23715 -0.970207 0.359709 1.88876 -1.87452 -9.02754 26.883 -31.8675 -170.677 38.2899 4.11561 21.8189 1.51108 16.7646 174.229 -165.548 -27.4583 -148.2 26.2053 1.20687 15.1807 2.74491 28.6715 173.748 -37.0919 -16.402 -179.22 -55.8631 -1.29143 -1.92532 16.4901 -13.0591 -178.943 -178.993 2.46899 166.609 -47.411 -1.93492 -1.71592 40.4034 -14.3814 -172.575 
7.37657 11.75 27.1704 -33.4155 -82.4815 -127.166 5.62827 6.79771 13.4624 -3.52134 2.07208 2.42282 -0.318541 -2.01494 -1.66291 2.53246 -4.56089 -7.42895 29.2215 -26.6802 -169.13 36.4438 3.57478 20.8352 1.61713 17.8636 174.196 -164.462 -29.9958 -145.484 26.6264 1.28303 15.4186 2.56785 27.1194 173.836 -32.5105 -20.1064 -179.246 -37.3007 -1.04288 -1.38205 11.6349 -11.6015 179.786 -175.582 1.69816 167.818 -43.9023 -1.77747 -1.60429 38.1171 -13.8545 -173.92 
7.38558 11.9038 26.7769 -36.7432 -82.0733 -130.737 4.61493 9.55023 13.9717 -3.29813 2.87391 0.59707 -0.467529 -2.95102 -3.04465 4.15527 -6.54575 -6.47593 31.6376 -22.3318 -166.981 35.917 3.42838 20.551 1.5296 16.9661 174.226 -164.406 -31.9567 -143.646 26.4137 1.24432 15.2986 2.6141 27.5213 173.812 -27.1726 -23.2601 -178.21 -24.6922 -0.853241 -1.0887 10.2383 -12.9577 179.867 -172.288 0.451554 168.217 -40.0548 -1.56875 -1.50082 33.7585 -13.9105 -175.286 
7.38149 12.0403 26.3867 -43.767 -82.0224 -137.545 2.94819 11.5773 13.829 -2.63443 3.47072 -0.641187 -1.13472 -3.46119 -4.71346 5.7582 -7.66534 -4.99207 33.8067 -18.7712 -165.331 36.3103 3.53843 20.7625 1.45748 16.2184 174.25 -163.86 -34.4083 -141.255 26.5247 1.26457 15.3613 2.43399 25.8959 173.896 -23.501 -25.0838 -178.459 -19.4891 -0.782528 -1.02678 12.173 -18.0114 -178.366 -169.803 -0.454677 169.41 -36.5189 -1.34007 -1.41811 29.128 -12.7096 -177.143 
7.35861 12.1465 25.9998 -48.9315 -82.8358 -142.501 0.788144 13.0591 13.7806 -1.85611 3.91487 -2.23315 -1.26997 -4.06843 -6.66831 6.29175 -8.75086 -2.39576 34.7751 -15.3776 -163.526 35.7693 3.38745 20.4715 1.5351 16.9459 174.228 -165.834 -34.519 -141.432 26.6825 1.29342 15.4503 2.3622 25.2246 173.926 -21.7429 -27.0659 -179.486 -18.2235 -0.766237 -1.01378 12.2265 -19.1109 -178.046 -167.793 -1.74538 170.292 -32.7614 -1.14504 -1.33304 25.0774 -12.9108 -178.056 
7.32759 12.2376 25.573 -52.0685 -83.5217 -145.957 -1.01767 14.0214 13.6397 -1.5214 4.22304 -2.73315 -1.30514 -4.34858 -7.59642 6.80752 -9.23107 -1.02167 35.535 -12.127 -162.85 35.971 3.44341 20.5801 1.47288 16.359 174.246 -167.309 -34.2973 -141.739 26.7497 1.30589 15.4882 2.30888 24.7263 173.949 -21.0578 -31.1115 179.757 -18.1096 -0.745406 -1.0266 10.8209 -18.6107 -178.682 -164.86 -4.24276 170.239 -27.882 -0.929437 -1.16295 20.558 -14.0931 -178.821 
